<?xml version="1.0" standalone="no"?>
<!DOCTYPE svg PUBLIC "-//W3C//DTD SVG 20010904//EN"
 "http://www.w3.org/TR/2001/REC-SVG-20010904/DTD/svg10.dtd">
<svg version="1.0" xmlns="http://www.w3.org/2000/svg"
 width="167.000000pt" height="60.000000pt" viewBox="0 0 167.000000 60.000000"
 preserveAspectRatio="xMidYMid meet">
<metadata>
Created by potrace 1.10, written by Peter Selinger 2001-2011
</metadata>
<g transform="translate(0.000000,60.000000) scale(0.100000,-0.100000)"
fill="#000000" stroke="none">
<path d="M20 571 c0 -16 23 -61 31 -61 4 0 11 10 15 23 l7 22 10 -22 c13 -30
25 -29 33 2 3 14 10 25 14 25 4 0 5 -11 2 -25 -2 -15 0 -25 7 -25 6 0 11 13
11 29 0 35 -29 52 -37 21 -7 -25 -12 -25 -29 -2 -12 16 -13 16 -19 0 -9 -22
-25 -24 -25 -4 0 8 -4 18 -10 21 -5 3 -10 2 -10 -4z"/>
<path d="M483 573 c-23 -9 -14 -33 12 -33 14 0 25 -5 25 -11 0 -7 -10 -9 -25
-5 -15 4 -25 2 -25 -4 0 -7 14 -10 33 -8 39 4 44 29 7 39 -14 4 -19 7 -12 8 6
1 12 6 12 11 0 11 -7 12 -27 3z"/>
<path d="M969 564 c-20 -24 -6 -49 29 -52 18 -2 32 1 32 7 0 6 -11 11 -25 11
-16 0 -25 6 -25 15 0 9 9 15 25 15 14 0 25 4 25 9 0 14 -48 10 -61 -5z"/>
<path d="M742 540 c0 -19 2 -27 5 -17 2 9 2 25 0 35 -3 9 -5 1 -5 -18z"/>
<path d="M1417 562 c-2 -4 -1 -18 4 -32 6 -23 7 -23 8 -3 1 12 6 23 13 25 8 3
6 7 -5 11 -9 3 -18 3 -20 -1z"/>
<path d="M1462 540 c0 -19 2 -27 5 -17 2 9 2 25 0 35 -3 9 -5 1 -5 -18z"/>
<path d="M161 533 c2 -24 2 -25 6 -5 3 13 12 22 23 22 11 0 20 -9 23 -22 4
-20 4 -19 6 5 1 24 -3 27 -29 27 -26 0 -30 -3 -29 -27z"/>
<path d="M234 546 c-8 -20 3 -36 24 -36 14 0 14 2 3 9 -11 7 -9 10 10 13 31 4
27 22 -6 26 -15 2 -27 -2 -31 -12z m43 -2 c-3 -3 -12 -4 -19 -1 -8 3 -5 6 6 6
11 1 17 -2 13 -5z"/>
<path d="M307 540 c-3 -11 -1 -23 4 -26 5 -3 9 4 9 15 0 27 4 26 34 -4 36 -36
56 -33 55 8 -1 23 -3 26 -6 10 -5 -27 -33 -31 -40 -5 -6 25 -49 27 -56 2z"/>
<path d="M552 538 c2 -12 9 -23 17 -26 8 -3 11 0 7 7 -5 7 1 11 13 11 12 0 21
7 21 15 0 10 -10 15 -31 15 -26 0 -30 -3 -27 -22z m41 5 c-7 -2 -19 -2 -25 0
-7 3 -2 5 12 5 14 0 19 -2 13 -5z"/>
<path d="M627 553 c-11 -10 -8 -43 3 -43 6 0 10 9 10 20 0 25 12 25 35 0 17
-19 19 -19 37 -4 10 10 18 22 18 27 0 6 -9 2 -20 -8 -18 -16 -20 -16 -26 -1
-6 16 -44 22 -57 9z"/>
<path d="M762 538 c2 -18 11 -24 37 -26 22 -2 31 0 26 8 -4 6 -15 10 -24 8
-31 -5 -26 17 5 23 27 6 27 7 -9 8 -34 1 -38 -1 -35 -21z"/>
<path d="M842 538 c2 -12 9 -23 17 -26 8 -3 11 0 7 7 -5 7 1 11 13 11 12 0 21
7 21 15 0 10 -10 15 -31 15 -26 0 -30 -3 -27 -22z m41 5 c-7 -2 -19 -2 -25 0
-7 3 -2 5 12 5 14 0 19 -2 13 -5z"/>
<path d="M1042 538 c2 -17 11 -24 31 -26 23 -3 27 0 27 22 0 22 -4 26 -31 26
-26 0 -30 -3 -27 -22z m48 3 c0 -12 -28 -22 -34 -12 -3 5 -3 11 1 15 9 9 33 7
33 -3z"/>
<path d="M1117 540 c-3 -11 -1 -23 4 -26 5 -3 9 4 9 15 0 30 37 28 43 -1 4
-20 4 -19 6 5 1 23 -3 27 -28 27 -20 0 -30 -6 -34 -20z"/>
<path d="M1191 533 c2 -24 2 -25 6 -5 6 29 43 31 43 1 0 -11 4 -18 9 -15 5 3
7 15 4 26 -4 14 -14 20 -34 20 -25 0 -29 -4 -28 -27z"/>
<path d="M1272 538 c2 -12 10 -23 18 -25 13 -4 13 -3 0 6 -12 9 -10 11 13 11
17 0 27 5 27 15 0 10 -10 15 -31 15 -26 0 -30 -3 -27 -22z m41 5 c-7 -2 -19
-2 -25 0 -7 3 -2 5 12 5 14 0 19 -2 13 -5z"/>
<path d="M1342 538 c2 -17 11 -24 31 -26 15 -2 27 1 27 7 0 6 -11 11 -25 11
-34 0 -32 18 3 23 25 4 24 4 -6 6 -29 1 -33 -2 -30 -21z"/>
<path d="M1484 545 c-8 -21 4 -35 32 -35 19 0 24 5 24 25 0 20 -5 25 -25 25
-14 0 -28 -7 -31 -15z m46 -9 c0 -9 -7 -12 -20 -9 -11 3 -17 9 -14 14 8 14 34
10 34 -5z"/>
<path d="M1560 551 c0 -5 -3 -16 -6 -25 -3 -9 -1 -16 5 -16 6 0 11 9 11 21 0
14 5 19 18 17 9 -2 17 -8 17 -15 0 -6 3 -15 8 -19 4 -4 7 5 7 19 0 23 -4 27
-30 27 -16 0 -30 -4 -30 -9z"/>
<path d="M130 405 c-7 -9 -10 -27 -6 -45 5 -27 3 -30 -19 -30 -14 0 -29 -8
-35 -20 -6 -11 -7 -20 -1 -20 5 0 11 7 15 15 3 8 12 15 20 15 12 0 11 -8 -6
-47 -35 -82 -65 -103 -65 -46 0 15 -6 29 -12 31 -17 6 -13 31 9 54 15 16 17
25 9 35 -11 13 -1 18 25 14 19 -4 46 11 46 25 0 13 -2 13 -16 -1 -11 -11 -20
-13 -29 -5 -14 12 -51 -22 -41 -39 3 -5 -1 -16 -9 -24 -16 -17 -21 -67 -6 -67
5 0 12 -22 16 -50 7 -50 18 -69 30 -50 10 16 25 12 25 -7 0 -13 3 -14 12 -5 7
7 20 12 30 12 10 0 18 7 18 16 0 12 7 15 25 12 26 -5 62 23 51 41 -3 5 1 16 9
24 20 20 19 53 -1 61 -9 3 -14 13 -11 20 7 18 -11 86 -22 86 -5 0 -11 -9 -14
-21 -3 -13 -10 -18 -17 -14 -7 4 -10 16 -7 26 6 23 -6 25 -23 4z m73 -66 c-14
-14 -5 -49 13 -49 18 0 18 -18 -1 -36 -8 -9 -15 -26 -15 -38 0 -19 -6 -23 -30
-23 -18 0 -36 -7 -44 -18 -10 -13 -15 -15 -21 -6 -8 14 34 131 47 131 14 0 8
-33 -9 -52 -9 -10 -11 -18 -6 -18 22 0 35 30 29 64 -5 27 -3 37 11 45 24 14
40 14 26 0z"/>
<path d="M430 390 c20 -13 100 -13 100 0 0 6 -26 10 -57 10 -41 0 -54 -3 -43
-10z"/>
<path d="M1539 393 c-6 -55 4 -100 29 -123 24 -21 27 -31 22 -65 -4 -35 -8
-40 -27 -37 -26 4 -31 -13 -7 -22 21 -8 75 -6 99 4 20 8 20 8 0 15 -11 5 -24
10 -29 13 -5 3 -6 0 -2 -6 4 -7 2 -12 -3 -12 -6 0 -11 21 -11 50 0 37 4 50 15
50 21 0 33 28 36 85 l3 50 -62 3 c-34 2 -62 -1 -63 -5z m98 -15 c-20 -7 -39
-7 -60 0 -29 9 -27 10 28 10 53 0 57 -1 32 -10z m-65 -57 c2 -22 0 -37 -4 -35
-8 5 -11 74 -4 74 2 0 6 -18 8 -39z m66 12 c-2 -23 -29 -63 -41 -63 -2 0 -4
18 -4 40 0 39 1 40 19 24 17 -16 18 -16 18 4 0 12 3 22 6 22 3 0 4 -12 2 -27z"/>
<path d="M251 270 l0 -120 77 0 77 0 0 120 0 120 -77 0 -76 0 -1 -120z m114 0
l0 -95 -33 2 c-51 2 -58 14 -56 87 4 95 8 103 52 102 l37 -1 0 -95z"/>
<path d="M550 270 l0 -120 80 0 79 0 0 120 0 120 -79 0 -80 0 0 -120z m137 1
l-2 -96 -57 -3 -58 -3 0 101 0 101 59 -2 59 -2 -1 -96z"/>
<path d="M1060 325 l0 -65 220 0 c153 0 220 3 220 11 0 8 -52 10 -174 7 -142
-3 -173 -1 -168 10 4 11 6 11 13 0 7 -11 11 -10 19 2 8 12 10 12 10 1 0 -11 3
-11 15 -1 10 8 56 12 150 11 84 -1 135 2 135 8 0 12 -269 20 -273 7 -1 -4 -8
-2 -14 5 -9 12 13 13 138 11 99 -3 149 0 149 7 0 13 -268 20 -274 6 -3 -5 -5
-4 -5 4 -1 11 -4 11 -16 1 -10 -9 -15 -9 -15 -1 0 6 -5 11 -11 11 -8 0 -8 -5
1 -15 9 -11 9 -15 1 -15 -6 0 -14 7 -17 15 -4 8 -11 15 -16 15 -6 0 -5 -7 3
-16 11 -13 11 -15 -2 -14 -34 5 -42 1 -29 -15 10 -12 16 -13 27 -3 20 16 51
17 64 2 8 -10 4 -12 -18 -10 -15 1 -36 -4 -45 -12 -12 -10 -18 -11 -18 -4 0 7
-5 12 -11 12 -6 0 -9 -6 -6 -14 6 -15 -17 -16 -30 -1 -4 4 -2 5 5 1 14 -8 17
10 3 19 -12 7 -11 46 2 62 6 9 15 10 27 3 9 -5 20 -6 24 -3 3 4 85 6 181 4
119 -1 175 1 175 8 0 8 -71 11 -220 11 l-220 0 0 -65z"/>
<path d="M1099 367 c-7 -13 -6 -58 2 -62 5 -3 6 1 3 9 -4 9 1 18 10 22 20 8
21 20 1 28 -8 3 -16 4 -16 3z"/>
<path d="M746 293 l-28 -15 28 -17 c24 -15 30 -15 32 -4 5 20 200 16 204 -4 2
-10 10 -8 32 6 l29 19 -32 16 c-28 15 -31 15 -31 1 0 -14 -14 -16 -100 -13
-65 2 -100 7 -102 15 -2 8 -11 7 -32 -4z"/>
<path d="M1060 239 c0 -5 92 -9 220 -9 139 0 220 4 220 10 0 6 -81 10 -220 9
-128 0 -220 -4 -220 -10z"/>
<path d="M1060 200 c0 -6 80 -10 220 -10 140 0 220 4 220 10 0 6 -80 10 -220
10 -140 0 -220 -4 -220 -10z"/>
<path d="M1060 160 c0 -6 80 -10 220 -10 140 0 220 4 220 10 0 6 -80 10 -220
10 -140 0 -220 -4 -220 -10z"/>
<path d="M430 150 c0 -5 25 -10 56 -10 34 0 53 4 49 10 -3 6 -28 10 -56 10
-27 0 -49 -4 -49 -10z"/>
<path d="M137 73 c-9 -9 -9 -53 1 -54 33 -6 53 -5 58 2 3 5 -10 10 -28 10
l-33 2 35 7 35 7 -33 2 c-20 0 -31 5 -27 11 4 6 11 8 16 5 5 -4 9 -1 9 4 0 12
-23 15 -33 4z"/>
<path d="M362 50 c0 -19 2 -27 5 -17 2 9 2 25 0 35 -3 9 -5 1 -5 -18z"/>
<path d="M705 70 c-3 -4 -1 -19 4 -32 7 -17 10 -18 10 -5 1 9 6 17 11 17 6 0
10 4 10 9 0 13 -28 22 -35 11z"/>
<path d="M798 52 c-2 -18 -1 -32 4 -32 4 0 8 7 8 17 0 14 2 14 21 -3 20 -18
22 -18 34 -1 15 21 26 22 19 2 -4 -8 -1 -15 5 -15 6 0 11 14 11 30 0 36 -6 37
-32 5 l-19 -25 -23 27 -23 27 -5 -32z"/>
<path d="M1541 47 c1 -18 3 -24 6 -14 2 9 9 17 14 17 15 0 10 17 -6 24 -12 4
-15 -2 -14 -27z"/>
<path d="M211 51 c-9 -16 -8 -22 8 -30 10 -6 21 -7 25 -3 4 3 11 0 17 -8 7
-11 9 -6 7 20 -2 27 -8 36 -25 38 -14 2 -26 -4 -32 -17z m49 -11 c0 -5 -9 -10
-20 -10 -11 0 -20 5 -20 10 0 6 9 10 20 10 11 0 20 -4 20 -10z"/>
<path d="M280 46 c0 -27 25 -41 54 -30 17 7 23 44 6 44 -5 0 -10 -7 -10 -15 0
-8 -9 -15 -20 -15 -12 0 -17 5 -14 14 3 8 1 17 -5 21 -7 4 -11 -4 -11 -19z"/>
<path d="M387 63 c-4 -3 -7 -19 -7 -35 0 -21 4 -27 13 -21 6 4 18 8 26 10 25
3 35 21 21 38 -13 15 -42 20 -53 8z m43 -23 c0 -5 -9 -10 -20 -10 -11 0 -20 5
-20 10 0 6 9 10 20 10 11 0 20 -4 20 -10z"/>
<path d="M463 51 c-3 -9 -8 -19 -10 -23 -2 -5 1 -8 6 -8 6 0 11 7 11 15 0 8 5
15 10 15 6 0 10 -7 10 -15 0 -8 5 -15 10 -15 6 0 10 7 10 15 0 8 5 15 10 15 6
0 10 -7 10 -15 0 -8 4 -15 10 -15 5 0 6 9 1 22 -10 28 -69 35 -78 9z"/>
<path d="M560 54 c-11 -12 -11 -18 2 -31 15 -14 18 -14 38 5 12 11 19 25 15
31 -9 16 -41 13 -55 -5z m40 -8 c0 -2 -7 -6 -15 -10 -8 -3 -15 -1 -15 4 0 6 7
10 15 10 8 0 15 -2 15 -4z"/>
<path d="M634 56 c-3 -8 -4 -21 -1 -28 4 -8 6 -6 6 5 1 10 9 17 20 17 11 0 22
-8 25 -17 3 -11 4 -7 3 7 -2 29 -43 42 -53 16z"/>
<path d="M940 60 c0 -5 -7 -10 -15 -10 -8 0 -15 -6 -15 -14 0 -18 39 -31 52
-18 6 6 17 8 24 5 8 -3 14 1 14 11 0 9 8 16 20 16 13 0 18 -5 14 -15 -4 -8 -1
-15 6 -15 6 0 10 10 8 23 -4 32 -45 36 -57 6 l-8 -23 -12 22 c-12 23 -31 30
-31 12z m13 -27 c-7 -2 -19 -2 -25 0 -7 3 -2 5 12 5 14 0 19 -2 13 -5z"/>
<path d="M1083 56 c-27 -13 -30 -31 -7 -40 25 -10 54 3 54 24 0 23 -19 29 -47
16z m30 -23 c-7 -2 -21 -2 -30 0 -10 3 -4 5 12 5 17 0 24 -2 18 -5z"/>
<path d="M1147 64 c-13 -13 -7 -44 8 -44 8 0 15 -4 15 -10 0 -5 7 -7 16 -3 23
9 14 57 -11 61 -12 2 -24 0 -28 -4z m43 -24 c0 -5 -9 -10 -20 -10 -11 0 -20 5
-20 10 0 6 9 10 20 10 11 0 20 -4 20 -10z"/>
<path d="M1220 54 c-11 -12 -11 -18 2 -31 15 -14 18 -14 39 6 20 19 21 23 9
31 -22 14 -36 12 -50 -6z m35 -14 c-3 -5 -10 -10 -16 -10 -5 0 -9 5 -9 10 0 6
7 10 16 10 8 0 12 -4 9 -10z"/>
<path d="M1293 54 c-3 -7 -3 -19 0 -26 4 -8 6 -6 6 5 1 9 8 17 16 17 9 0 12
-6 9 -15 -4 -8 -1 -15 5 -15 6 0 11 7 11 15 0 8 5 15 10 15 6 0 10 -7 10 -15
0 -8 5 -15 10 -15 14 0 12 27 -2 37 -22 13 -69 12 -75 -3z"/>
<path d="M1397 64 c-12 -13 -8 -42 8 -48 8 -3 15 -1 15 4 0 6 7 10 16 10 23 0
13 34 -12 38 -11 2 -23 0 -27 -4z m33 -24 c-19 -13 -30 -13 -30 0 0 6 10 10
23 10 18 0 19 -2 7 -10z"/>
<path d="M1467 63 c-11 -10 -8 -43 3 -43 5 0 7 7 4 15 -4 10 0 15 15 15 12 0
21 -6 21 -15 0 -8 5 -15 10 -15 14 0 13 23 -2 38 -13 13 -41 16 -51 5z"/>
</g>
</svg>
